<?xml version="1.0" encoding="UTF-8" standalone="no"?>
<svg
   xmlns:dc="http://purl.org/dc/elements/1.1/"
   xmlns:cc="http://creativecommons.org/ns#"
   xmlns:rdf="http://www.w3.org/1999/02/22-rdf-syntax-ns#"
   xmlns:svg="http://www.w3.org/2000/svg"
   xmlns="http://www.w3.org/2000/svg"
   id="svg4"
   version="1.1"
   viewBox="0 0 24 24"
   height="24"
   width="24"
   aria-hidden="false"
   class="icon-LYJorE">
  <metadata
     id="metadata10">
    <rdf:RDF>
      <cc:Work
         rdf:about="">
        <dc:format>image/svg+xml</dc:format>
        <dc:type
           rdf:resource="http://purl.org/dc/dcmitype/StillImage" />
        <dc:title></dc:title>
      </cc:Work>
    </rdf:RDF>
  </metadata>
  <defs
     id="defs8" />
  <path
     style="stroke:none;fill:#7289da;fill-opacity:1"
     id="path2"
     d="m 21,3 h 3 V 5 H 21 V 8 H 19 V 5 H 16 V 3 h 3 V 0 h 2 z" />
  <path
     transform="matrix(0.8,0,0,0.8,0.2,2.4)"
     id="path2-4"
     d="m 12,2 c -1.1045695,0 -2,0.8954305 -2,2 0,0.740000000000001 0.4,1.390468749999997 1,1.73046875 V 7 H 10 C 9.723734092329852,7 9.453460301283726,7.02160264227296 9.185546875,7.052734375 c -0.100264499114045,0.01163281152702 -0.197948516529461,0.02909761553692 -0.296875,0.044921875 -0.17530438352205,0.0280565522238 -0.348829222279781,0.06074362277937 -0.51953125,0.1015625 -0.09450718378755,0.02259759743912 -0.188275209691966,0.04587793105743 -0.28125,0.072265625 -0.191309109507144,0.05427715097409 -0.378239138170108,0.117737904597893 -0.5625,0.1875 C 7.459362972869294,7.483976075450441 7.391228760703596,7.504335911052909 7.326171875,7.53125 7.089170620671003,7.629322856124797 6.859762648557718,7.740766217093216 6.63671875,7.86328125 6.571179514712612,7.899285755905403 6.509552555089066,7.940494586502246 6.4453125,7.978515625 6.272949735516935,8.080502812988674 6.103853215356449,8.186796594409935 5.94140625,8.302734375 5.883001168086074,8.344418989427843 5.826582141038271,8.388225073880809 5.76953125,8.431640625 5.611702538145627,8.551739614860283 5.459413746498551,8.677752746813292 5.3125,8.810546875 5.254650938449386,8.862829514546739 5.196694425553747,8.914586706828906 5.140625,8.96875 4.962654301823111,9.140677533845579 4.791811835930726,9.319930578146204 4.6328125,9.509765625 4.625385832378248,9.518631121028137 4.61675848168128,9.526253496309351 4.609375,9.53515625 4.44144438600034,9.737667885749218 4.287174098758138,9.951078645406218 4.142578125,10.171875 c -0.01231702901468,0.0188088569866 -0.02692227158735,0.0357534323386 -0.0390625,0.0546875 0.0025807465421,-6.2888133021e-4 0.0052307745576,-0.001326751636 0.0078125,-0.001953125 C 3.411053483185454,11.31457197912685 3,12.60823299762927 3,14 H 2 c -0.55228475,0 -1,0.4477153 -1,1 v 3 c 0,0.5522847 0.44771525,1 1,1 h 1 v 1 c 0,1.1045695 0.8954305,2 2,2 4.666666666666674,0 9.33333333333333,0 14,0 1.1045695,0 2,-0.8954305 2,-2 v -1 h 1 c 0.55228475,0 1,-0.4477153 1,-1 v -3 c 0,-0.5522847 -0.44771525,-1 -1,-1 h -1 c 0,-1.39176700237073 -0.41105348318546,-2.68542802087315 -1.111328125,-3.775390625 0.002581725442,6.2637336387e-4 0.005231753458,0.00132424367 0.0078125,0.001953125 -0.0121402284127,-0.0189340676614 -0.0267454709853,-0.0358786430134 -0.0390625,-0.0546875 C 19.71282590124186,9.951078645406218 19.55855561399966,9.737667885749218 19.390625,9.53515625 19.38326787519165,9.526284113205733 19.37458751191804,9.518600766360538 19.3671875,9.509765625 19.20818816406927,9.319930578146204 19.03734569817689,9.140677533845579 18.859375,8.96875 18.80330557444625,8.914586706828906 18.74534906155062,8.862829514546737 18.6875,8.810546875 18.54058625350145,8.677752746813292 18.38829746185437,8.551739614860283 18.23046875,8.431640625 18.17341785896173,8.388225073880809 18.11699883191393,8.344418989427843 18.05859375,8.302734375 17.89614678464355,8.186796594409935 17.72705026448307,8.080502812988674 17.5546875,7.978515625 17.49044744491093,7.940494586502246 17.42882048528739,7.899285755905403 17.36328125,7.86328125 17.14023735144228,7.740766217093216 16.910829379329,7.629322856124797 16.673828125,7.53125 16.6087712392964,7.50433591105291 16.54063702713071,7.48397607545044 16.474609375,7.458984375 c -0.18426086182989,-0.06976209540211 -0.37119089049285,-0.133222849025908 -0.5625,-0.1875 -0.092974790308,-0.02638769394257 -0.18674281621244,-0.04966802756088 -0.28125,-0.072265625 -0.17070202772022,-0.04081887722063 -0.34422686647795,-0.0735059477762 -0.51953125,-0.1015625 -0.0989264834705,-0.01582425946308 -0.19661050088595,-0.03328906347298 -0.296875,-0.044921875 C 14.54653969871627,7.021602642272958 14.27626590767015,7 14,7 H 13 V 5.73046875 C 13.6,5.390468749999997 14,4.740000000000001 14,4 14,2.8954305 13.1045695,2 12,2 Z M 7.5,13 C 8.88071187,13 10,14.1192881 10,15.5 10,16.8807119 8.88071187,18 7.5,18 6.119288130000001,18 5,16.8807119 5,15.5 5,14.1192881 6.119288130000001,13 7.5,13 Z m 9,0 C 17.88071187,13 19,14.1192881 19,15.5 19,16.8807119 17.88071187,18 16.5,18 15.11928813,18 14,16.8807119 14,15.5 14,14.1192881 15.11928813,13 16.5,13 Z"
     style="fill:#7289da;fill-opacity:1;stroke:none;stroke-width:1.25" />
</svg>
